<svg width="39" height="39" viewBox="0 0 39 39" fill="none" xmlns="http://www.w3.org/2000/svg">
<g clip-path="url(#clip0)">
<path d="M38.3274 32.2758H0.672443C0.301106 32.2758 0 31.9747 0 31.6033V7.39656C0 7.02522 0.301106 6.72411 0.672443 6.72411H38.3275C38.6988 6.72411 38.9999 7.02522 38.9999 7.39656V31.6033C38.9998 31.9747 38.6987 32.2758 38.3274 32.2758Z" fill="#41479B"/>
<path d="M38.9998 7.39656C38.9998 7.02522 38.6987 6.72411 38.3274 6.72411H35.319L22.8619 14.8857V6.72411H16.1378V14.8857L3.68076 6.72411H0.672443C0.301106 6.72411 0 7.02522 0 7.39656V9.13563L10.6876 16.1379H0V22.862H10.6876L0 29.8643V31.6033C0 31.9747 0.301106 32.2758 0.672443 32.2758H3.68084L16.1379 24.1142V32.2758H22.8621V24.1142L35.3192 32.2758H38.3276C38.6989 32.2758 39 31.9747 39 31.6033V29.8643L28.3124 22.8621H38.9998V16.1379H28.3123L38.9998 9.13563V7.39656Z" fill="#F5F5F5"/>
<path d="M38.9998 17.4827H21.5172V6.72411H17.4827V17.4827H0V21.5172H17.4827V32.2758H21.5172V21.5172H38.9998V17.4827Z" fill="#FF4B55"/>
<path d="M13.631 22.862L0.0192871 31.6976C0.0668943 32.0224 0.334637 32.2758 0.672611 32.2758H1.59878L16.1011 22.8621H13.631V22.862Z" fill="#FF4B55"/>
<path d="M26.3851 22.862H23.915L38.3963 32.2618C38.7338 32.2259 39.0002 31.9503 39.0002 31.6033V31.0504L26.3851 22.862Z" fill="#FF4B55"/>
<path d="M0 8.13884L12.323 16.1379H14.7931L0.39175 6.78969C0.161712 6.89656 0 7.12621 0 7.39655V8.13884Z" fill="#FF4B55"/>
<path d="M25.3317 16.1386L38.9761 7.28166C38.9194 6.96768 38.6573 6.72492 38.327 6.72492H37.3637L22.8616 16.1386H25.3317Z" fill="#FF4B55"/>
</g>
<defs>
<clipPath id="clip0">
<rect width="39" height="39" fill="white"/>
</clipPath>
</defs>
</svg>
